<svg viewBox="0 0 248.00000000000003 180.61058476318615" preserveAspectRatio="xMidYMid meet" class="css-g5ufxp" id="habddhgd"><defs id="SvgjsDefs3910"></defs><g id="SvgjsG3911" featurekey="phAakL-0" transform="matrix(1.69558881971122,0,0,1.69558881971122,48.17366538614386,-20.48450125844483)" fill="#fff"><g xmlns="http://www.w3.org/2000/svg"><path d="M38.4296875,28.9643555c2.7109375,0,4.9169922-2.199707,4.9169922-4.9042969s-2.2060547-4.9042969-4.9169922-4.9042969   c-2.7265625,0-4.9443359,2.199707-4.9443359,4.9042969S35.703125,28.9643555,38.4296875,28.9643555z M38.4296875,20.7553711   c1.7978516,0,3.3173828,1.5136719,3.3173828,3.3046875c0,1.8222656-1.4882813,3.3046875-3.3173828,3.3046875   c-1.84375,0-3.3447266-1.4824219-3.3447266-3.3046875S36.5859375,20.7553711,38.4296875,20.7553711z"></path><path d="M51.5996094,28.9643555c2.7265625,0,4.9443359-2.199707,4.9443359-4.9042969s-2.2177734-4.9042969-4.9443359-4.9042969   s-4.9443359,2.199707-4.9443359,4.9042969S48.8730469,28.9643555,51.5996094,28.9643555z M51.5996094,20.7553711   c1.84375,0,3.3447266,1.4824219,3.3447266,3.3046875s-1.5009766,3.3046875-3.3447266,3.3046875   s-3.3447266-1.4824219-3.3447266-3.3046875S49.7558594,20.7553711,51.5996094,20.7553711z"></path><path d="M77.0488281,70.2950439V42.6108398c0-3.9022827-3.0474854-7.1028442-6.897522-7.3875122   c-0.8265381-1.9910278-2.6865234-3.4516602-4.9144897-3.7286987c-0.2944946-9.1774902-6.8381348-16.8043823-15.5600586-18.8533936   c-0.1116333-0.0591431-0.2330933-0.1011963-0.3681641-0.1011963c-0.0056763,0-0.010376,0.0031128-0.0159912,0.0032349   c-1.3848267-0.2967529-2.8183594-0.4622192-4.291626-0.4622192c-1.4691162,0-2.8988037,0.1641235-4.2799683,0.4592285   c-0.0004272,0-0.0008545-0.0002441-0.0012817-0.0002441c-0.1281128,0-0.2446289,0.0367432-0.3519897,0.090332   c-8.7432861,2.0340576-15.3076172,9.6716919-15.6026001,18.8641968c-2.2290649,0.2769775-4.0895996,1.7382813-4.9158936,3.7300415   c-3.8520508,0.2973022-6.8961182,3.4928589-6.8961182,7.3862305v27.6872559   c-2.7896118,0.9716187-4.7988281,3.6107178-4.7988281,6.7145996v0.1347656c0,0.4418945,0.3583984,0.7998047,0.7998047,0.7998047   h3.6533203c0.4414063,0,0.7998047-0.4116211,0.7998047-0.8535156c0-1.0478516,0.8525391-1.9008789,1.8994141-1.9008789   c1.0800781,0,1.9267578,0.8349609,1.9267578,1.9545898c0,0.4418945,0.3583984,0.7998047,0.7998047,0.7998047H21.6875   c0.4414063,0,0.7998047-0.3579102,0.7998047-0.7998047v-0.1347656c0-3.0968018-2.0081177-5.7307129-4.7988281-6.7077026V42.6108398   c0-1.3214722,0.9441528-2.427063,2.1951294-2.6818237c0.8391724,1.9390869,2.6658325,3.3571167,4.8488159,3.6403198v7.4663086   c0,8.5200195,5.4031982,16.0316162,13.4970703,18.8936768v0.2786865v2.9160156   c0,0.2270508,0.0029297,0.4541016,0.0351563,0.6816406c0.0004272,0.0029297,0.0022583,0.0053101,0.0027466,0.0082397   c0.3364868,2.3572388,2.4075928,4.1333618,4.8244019,4.1333618h3.8173828c2.4199219,0,4.4960938-1.7817383,4.828125-4.1445313   c0.0004883-0.0036011-0.0012207-0.007019-0.0007935-0.0106201c0.0006104-0.0040283,0.0031738-0.0073242,0.0037231-0.0113525   c0.03125-0.2192383,0.0585938-0.4379883,0.0585938-0.6567383v-2.9160156v-0.2788086   c8.0782471-2.8577271,13.4707031-10.3691406,13.4707031-18.8935547v-7.4663696   c2.1827393-0.2833252,4.0094604-1.7017212,4.8483887-3.6413574c1.2475586,0.2513428,2.2219238,1.37677,2.2219238,2.6829224   v27.6842041c-2.8049927,0.9692383-4.8261719,3.6107178-4.8261719,6.7176514v0.1347656   c0,0.4418945,0.3583984,0.7998047,0.7998047,0.7998047h3.6542969c0.4414063,0,0.7998047-0.4116211,0.7998047-0.8535156   c0-1.0478516,0.8642578-1.9008789,1.9267578-1.9008789s1.9267578,0.8530273,1.9267578,1.9545898   c0,0.4418945,0.3583984,0.7998047,0.7998047,0.7998047h3.6542969c0.4414063,0,0.7998047-0.3579102,0.7998047-0.7998047v-0.1347656   C81.875,73.9057617,79.8538208,71.2642822,77.0488281,70.2950439z M48.5087891,14.0184937v0.2124634   c0,1.8964844-1.5732422,3.4394531-3.5078125,3.4394531c-1.9199219,0-3.4814453-1.5429688-3.4814453-3.4394531v-0.2164917   c1.1293945-0.2116699,2.2907104-0.3338013,3.4814453-0.3338013C46.2008667,13.6806641,47.3712158,13.8036499,48.5087891,14.0184937   z M39.9360352,14.3892822c0.0866089,2.7041626,2.3178711,4.8807373,5.0649414,4.8807373   c2.7591553,0,5.000061-2.1732788,5.0905151-4.8742065c7.5738525,2.1275024,13.1846924,8.8635254,13.5374146,16.9381714H26.3730469   C26.7261963,23.2503662,32.3493042,16.5088501,39.9360352,14.3892822z M39.8291016,36.4169922h10.3701172v1.8837891H39.8291016   V36.4169922z M50.1992188,34.8173828H39.8291016v-1.8837891h10.3701172V34.8173828z M20.8476563,76.3476563h-2.0947266   c-0.3457031-1.5732422-1.7597656-2.7543945-3.4462891-2.7543945c-1.6611328,0-3.0556641,1.1640625-3.4111328,2.7543945H9.7939453   c0.3320313-2.730957,2.6777344-4.8540039,5.5126953-4.8540039C18.15625,71.4936523,20.5136719,73.6166992,20.8476563,76.3476563z    M16.0888672,42.6108398v27.3274536c-0.2572021-0.027771-0.5177002-0.0442505-0.7822266-0.0442505   c-0.2546997,0-0.5059814,0.0144043-0.7539063,0.0404053V42.6108398c0-2.8657227,2.1088867-5.2479858,4.8706665-5.7238159   c-0.0227661,0.2128296-0.0357056,0.4284668-0.0357056,0.6471558c0,0.2926636,0.0280762,0.5782471,0.0684814,0.8599854   C17.5315552,38.8392334,16.0888672,40.5559692,16.0888672,42.6108398z M20.9873047,37.5341797   c0-2.2075195,1.6191406-4.0483398,3.7451172-4.4228516v8.8461914   C22.6064453,41.5825195,20.9873047,39.7416992,20.9873047,37.5341797z M50.1992188,67.5244141v1.8461914v0.0375977H39.8291016   v-0.0375977v-1.8461914H50.1992188z M39.8291016,71.0078125h10.3701172v1.8837891H39.8291016V71.0078125z M40.1481934,65.9248047   c0.522644-1.0933838,1.6409302-1.8569336,2.9436035-1.8569336h3.8173828c1.3139648,0,2.4415283,0.7635498,2.9683838,1.8569336   H40.1481934z M46.9091797,76.3476563h-3.8173828c-1.2949219,0-2.4423828-0.753418-2.96875-1.8564453h9.7548828   C49.3515625,75.5942383,48.2041016,76.3476563,46.9091797,76.3476563z M51.7988281,68.2387695v-0.9472656   c0-0.2192383-0.0283203-0.4389648-0.0615234-0.6772461c-0.001709-0.0124512-0.0091553-0.0223389-0.0114136-0.0346069   c-0.3522949-2.3206177-2.3675537-4.1113892-4.8167114-4.1113892h-3.8173828c-2.3960571,0-4.3800049,1.730957-4.7780151,3.9961548   c-0.0170898,0.0483398-0.0842896,0.6000366-0.0842896,0.8270874v0.9477539   c-3.593689-1.3905029-6.5758057-3.7922363-8.65625-6.8063965c0.6549072-7.9115601,7.3843384-14.079834,15.4277344-14.079834   c8.0733032,0,14.8056641,6.1745605,15.4299316,14.0913696C58.3555298,64.4545898,55.381897,66.8517456,51.7988281,68.2387695z    M61.7216797,59.2556152C60.1229248,51.5266724,53.192627,45.753418,45.0009766,45.753418   c-8.1665039,0-15.0959473,5.7730103-16.7145996,13.5019531c-1.2565918-2.4962769-1.9543457-5.2930298-1.9543457-8.2197266   v-5.1499023h9.4609375v-1.5996094h-9.4609375v-1.4589844v-0.7172852h6.6181641v-1.5996094h-6.6181641v-2.1762695h4.28125V36.734375   h-4.28125v-3.8007813h11.8974609v2.6835938v2.9165039c0,0.2270508,0.0029297,0.4541016,0.0351563,0.6816406   c0.0576172,0.3930664,0.3945313,0.6850586,0.7919922,0.6850586h11.8886719c0.3994141,0,0.7402344-0.3134766,0.7949219-0.7084961   c0.0302734-0.2192383,0.0585938-0.4389648,0.0585938-0.6582031v-2.9165039v-2.6835938h11.8710938v1.5913086h-9.0625v1.5996094   h9.0625v2.1762695h-6.2197266v1.5996094h6.2197266v2.1762695h-3.8837891v1.5996094h3.8837891v7.359375   C63.6699219,53.9629517,62.9744263,56.7597046,61.7216797,59.2556152z M65.2695313,41.9575195v-8.8461914   c2.125,0.375,3.7441406,2.215332,3.7441406,4.4228516S67.3945313,41.5825195,65.2695313,41.9575195z M70.5460815,38.3858032   c0.0396118-0.2790527,0.0671997-0.5618896,0.0671997-0.8516235c0-0.2199707-0.0132446-0.4368286-0.0362549-0.6508179   c2.7610474,0.4660034,4.8721924,2.8533936,4.8721924,5.727478v27.3233032   c-0.24823-0.0258179-0.4998779-0.0401001-0.7548828-0.0401001s-0.5066528,0.0142822-0.7548828,0.0401001V42.6108398   C73.9394531,40.5460815,72.4844971,38.8206177,70.5460815,38.3858032z M78.140625,76.3476563   c-0.3457031-1.5732422-1.7597656-2.7543945-3.4462891-2.7543945c-1.6738281,0-3.0800781,1.1640625-3.4384766,2.7543945h-2.1025391   c0.3339844-2.730957,2.6914063-4.8540039,5.5410156-4.8540039s5.2070313,2.1230469,5.5410156,4.8540039H78.140625z"></path></g></g><g id="SvgjsG3912" featurekey="fNbRbf-0" transform="matrix(2.1198919395089835,0,0,2.1198919395089835,-3.870286303154855,121.40054030245508)" fill="#fff"><path d="M10.146 8.467 l-5.3711 0 l0 3.2031 l4.6387 0 l0 2.5488 l-4.6387 0 l0 5.7813 l-2.9492 0 l0 -14.111 l8.3203 0 l0 2.5781 z M12.2754125 20 l0 -15 l2.8418 0 l0 15 l-2.8418 0 z M22.705065625 20.19531 c-3.1934 0 -5.498 -1.9434 -5.498 -5.2246 c0 -3.2617 2.2852 -5.2051 5.498 -5.2051 c3.2324 0 5.5078 1.9434 5.5078 5.2051 c0 3.2813 -2.2852 5.2246 -5.5078 5.2246 z M22.675765625 17.959 c1.6309 0 2.7441 -1.1914 2.7441 -2.9883 s-1.1133 -2.9883 -2.7441 -2.9883 c-1.5723 0 -2.6758 1.1914 -2.6758 2.9883 s1.1035 2.9883 2.6758 2.9883 z M42.93965625 9.961 l2.9102 0 l-3.5156 10.049 l-2.6074 0 l-2.3242 -6.6309 l-2.3438 6.6309 l-2.6465 0 l-3.4473 -10.049 l2.9004 0 l2.0703 6.5332 l2.373 -6.5332 l2.1582 0 l2.3633 6.5137 z M60.83984375 17.2754 c0 1.2305 0.11719 2.0117 0.24414 2.4512 l0 0.27344 l-2.627 0 l-0.22461 -1.0938 c-0.75195 0.9082 -2.0508 1.2891 -3.2227 1.2891 c-1.582 0 -3.125 -0.70313 -3.125 -2.793 c0 -2.0801 1.5527 -2.7832 3.6523 -3.2422 l1.6504 -0.37109 c0.71289 -0.16602 0.9668 -0.41016 0.9668 -0.82031 c0 -0.98633 -0.89844 -1.2598 -1.6895 -1.2598 c-1.0156 0 -1.7871 0.40039 -1.9629 1.5332 l-2.4902 -0.44922 c0.41992 -2.0801 1.9434 -3.0273 4.6094 -3.0273 c2.0117 0 4.2188 0.5957 4.2188 3.623 l0 3.8867 z M55.88864375 18.291 c1.3379 0 2.4121 -0.88867 2.4121 -2.8809 l-2.3828 0.67383 c-0.78125 0.18555 -1.3477 0.45898 -1.3477 1.1328 c0 0.72266 0.5957 1.0742 1.3184 1.0742 z M66.269540625 11.5527 c0.50781 -0.88867 1.8262 -1.709 3.2813 -1.709 l0 2.5098 c-2.1289 0 -3.1445 0.625 -3.1445 2.7539 l0 4.8926 l-2.832 0 l0 -10.039 l2.6953 0 l0 1.5918 z M74.94139375 20 c-1.9531 0 -3.0664 -1.1328 -3.0664 -3.1348 l0 -4.7461 l-1.9727 0 l0 -2.1582 l0.63477 0 c1.0645 0 1.6504 -0.41016 1.6504 -1.9141 l0 -1.3281 l2.5391 0 l0 3.2422 l2.0703 0 l0 2.1582 l-2.0703 0 l0 4.4434 c0 0.89844 0.43945 1.2988 1.1621 1.2988 l0.9082 0 l0 2.1387 l-1.8555 0 z M80.41013125 8.457 c-0.88867 0 -1.6309 -0.72266 -1.6309 -1.6211 c0 -0.88867 0.74219 -1.6113 1.6309 -1.6113 c0.86914 0 1.6113 0.72266 1.6113 1.6113 c0 0.89844 -0.74219 1.6211 -1.6113 1.6211 z M78.97463125 20 l0 -10.039 l2.832 0 l0 10.039 l-2.832 0 z M88.25191875 20.19531 c-2.2559 0 -4.0039 -0.88867 -4.3652 -2.793 l2.3535 -0.66406 c0.30273 1.0742 1.0645 1.4941 2.0117 1.4941 c0.69336 0 1.4453 -0.21484 1.4258 -1.0059 c-0.0097656 -1.0449 -1.5918 -1.1328 -3.1836 -1.6992 c-1.2012 -0.41992 -2.3535 -1.0645 -2.3535 -2.7539 c0 -2.0605 1.709 -3.0078 3.9355 -3.0078 c1.9531 0 3.584 0.74219 3.9746 2.6563 l-2.1777 0.48828 c-0.30273 -0.9375 -0.9668 -1.2695 -1.7871 -1.2695 c-0.74219 0 -1.377 0.26367 -1.377 0.88867 c0 0.79102 1.1621 0.94727 2.4219 1.2891 c1.5527 0.41992 3.252 1.0938 3.252 3.2422 c0 2.3047 -1.9629 3.1348 -4.1309 3.1348 z M102.63671875 17.2754 c0 1.2305 0.11719 2.0117 0.24414 2.4512 l0 0.27344 l-2.627 0 l-0.22461 -1.0938 c-0.75195 0.9082 -2.0508 1.2891 -3.2227 1.2891 c-1.582 0 -3.125 -0.70313 -3.125 -2.793 c0 -2.0801 1.5527 -2.7832 3.6523 -3.2422 l1.6504 -0.37109 c0.71289 -0.16602 0.9668 -0.41016 0.9668 -0.82031 c0 -0.98633 -0.89844 -1.2598 -1.6895 -1.2598 c-1.0156 0 -1.7871 0.40039 -1.9629 1.5332 l-2.4902 -0.44922 c0.41992 -2.0801 1.9434 -3.0273 4.6094 -3.0273 c2.0117 0 4.2188 0.5957 4.2188 3.623 l0 3.8867 z M97.68551875 18.291 c1.3379 0 2.4121 -0.88867 2.4121 -2.8809 l-2.3828 0.67383 c-0.78125 0.18555 -1.3477 0.45898 -1.3477 1.1328 c0 0.72266 0.5957 1.0742 1.3184 1.0742 z M111.298815625 9.766 c2.4121 0 3.7402 1.25 3.7402 3.4766 l0 6.7578 l-2.8223 0 l0 -6.1523 c0 -1.3379 -0.83008 -1.8262 -1.7969 -1.8262 c-1.1621 0 -2.2168 0.58594 -2.2363 2.4414 l0 5.5371 l-2.8125 0 l0 -10.039 l2.8125 0 l0 1.1133 c0.70313 -0.83008 1.7871 -1.3086 3.1152 -1.3086 z"></path></g><g id="SvgjsG3913" featurekey="gqtJpI-0" transform="matrix(0.47914426395178883,0,0,0.47914426395178883,-0.32849364522265734,170.9709166648487)" fill="#fff"><path d="M14.068 19.77983 c0.067797 0.13559 0.034229 0.22017 -0.11831 0.22017 l-1.0339 0 c-0.11864 0 -0.18644 -0.050847 -0.23729 -0.15254 l-1.1864 -2.5254 l-8.1864 0 l-1.1864 2.5254 c-0.050847 0.10169 -0.11848 0.15254 -0.22034 0.15254 l-1.0678 0 c-0.11864 0 -0.18644 -0.08458 -0.11864 -0.22017 l6.3558 -13.271 c0.067797 -0.11864 0.11864 -0.15254 0.20322 -0.15254 l0.23745 0 c0.084746 0 0.15254 0.033898 0.20339 0.15254 z M3.8815 16.1019 l7.0339 0 l-3.5254 -7.4576 z M37.4644406779661 6.441000000000001 c0.11864 0 0.20356 0.067631 0.20356 0.18627 l0 13.186 c0 0.11881 -0.084746 0.18644 -0.20339 0.18644 l-0.35593 0 c-0.25441 0 -0.49169 -0.16933 -0.81373 -0.52525 l-8.9153 -10.525 l0 10.831 c0 0.13559 -0.084746 0.22017 -0.22034 0.22017 l-0.88136 0 c-0.15254 0 -0.22034 -0.08458 -0.22034 -0.22017 l0 -13.136 c0 -0.11864 0.067797 -0.20339 0.20339 -0.20339 l0.55932 0 c0.11864 0 0.20339 0.050847 0.32203 0.18644 l9.2034 10.932 l0 -10.932 c0 -0.11864 0.067797 -0.18644 0.18644 -0.18644 l0.9322 0 z M61.35206779661017 14.5424 c0.16949 0 0.23746 0.067631 0.23746 0.23712 l0 3.0678 l-0.016949 0 c0 0.067797 -0.050847 0.16949 -0.13559 0.25424 c-1.2544 1.2542 -2.8814 2.0168 -4.8983 2.0168 c-3.8136 0 -6.9322 -3.0168 -6.9322 -6.8812 c0 -3.8475 3.1186 -6.9153 6.9322 -6.9153 c1.9322 0 3.661 0.74576 4.9322 2.0169 c0.15254 0.15254 0.16949 0.27119 0.067797 0.35593 l-0.71186 0.59322 c-0.11864 0.10169 -0.22034 0.10169 -0.33898 -0.016949 c-0.71186 -0.74559 -2.1186 -1.6608 -3.8475 -1.6608 c-3.678 0 -5.7119 2.9831 -5.7119 5.6271 c0 2.678 2.0339 5.5932 5.7119 5.5932 c1.5932 0 2.8475 -0.74576 3.61 -1.4407 l0 -1.5763 l-3.5763 0 c-0.15254 0 -0.22034 -0.067797 -0.22034 -0.20339 l0 -0.83051 c0 -0.16949 0.067797 -0.23729 0.22034 -0.23729 l4.678 0 z M86.35952542372881 19.77983 c0.067797 0.13559 0.034229 0.22017 -0.11831 0.22017 l-1.0339 0 c-0.11864 0 -0.18644 -0.050847 -0.23729 -0.15254 l-1.1864 -2.5254 l-8.1864 0 l-1.1864 2.5254 c-0.050847 0.10169 -0.11848 0.15254 -0.22034 0.15254 l-1.0678 0 c-0.11864 0 -0.18644 -0.08458 -0.11864 -0.22017 l6.3558 -13.271 c0.067797 -0.11864 0.11864 -0.15254 0.20322 -0.15254 l0.23745 0 c0.084746 0 0.15254 0.033898 0.20339 0.15254 z M76.17302542372882 16.1019 l7.0339 0 l-3.5254 -7.4576 z M108.72155932203388 14.5424 c0.16949 0 0.23746 0.067631 0.23746 0.23712 l0 3.0678 l-0.016949 0 c0 0.067797 -0.050847 0.16949 -0.13559 0.25424 c-1.2544 1.2542 -2.8814 2.0168 -4.8983 2.0168 c-3.8136 0 -6.9322 -3.0168 -6.9322 -6.8812 c0 -3.8475 3.1186 -6.9153 6.9322 -6.9153 c1.9322 0 3.661 0.74576 4.9322 2.0169 c0.15254 0.15254 0.16949 0.27119 0.067797 0.35593 l-0.71186 0.59322 c-0.11864 0.10169 -0.22034 0.10169 -0.33898 -0.016949 c-0.71186 -0.74559 -2.1186 -1.6608 -3.8475 -1.6608 c-3.678 0 -5.7119 2.9831 -5.7119 5.6271 c0 2.678 2.0339 5.5932 5.7119 5.5932 c1.5932 0 2.8475 -0.74576 3.61 -1.4407 l0 -1.5763 l-3.5763 0 c-0.15254 0 -0.22034 -0.067797 -0.22034 -0.20339 l0 -0.83051 c0 -0.16949 0.067797 -0.23729 0.22034 -0.23729 l4.678 0 z M129.62691694915253 7.728999999999999 l-7.3556 0.00049656 l0 4.9659 l4.5424 0 c0.15254 0 0.23729 0.067797 0.23729 0.23729 l0 0.81339 c0 0.15254 -0.084746 0.22034 -0.23729 0.22034 l-4.5424 0 l0 4.7458 l7.3559 0 c0.15254 0 0.23712 0.084746 0.23712 0.23712 l0 0.81356 c0 0.16949 -0.067797 0.23712 -0.23729 0.23712 l-8.4746 0 c-0.15254 0 -0.22034 -0.08458 -0.22034 -0.22017 l0 -13.119 c0 -0.15254 0.084746 -0.22034 0.22034 -0.22034 l8.4746 0 c0.15254 0 0.23712 0.084746 0.23712 0.22034 l0 0.84746 c0 0.13559 -0.067797 0.22034 -0.23729 0.22034 z M147.22709152542373 16.1019 c0 0.15254 -0.067797 0.22034 -0.20339 0.22034 l-5.339 0 c-0.15254 0 -0.23729 -0.067797 -0.23729 -0.20339 l0 -0.74576 c0 -0.15254 0.084746 -0.22034 0.23729 -0.22034 l5.339 0 c0.13559 0 0.20339 0.067797 0.20339 0.22034 l0 0.72881 z M160.2508694915254 6.441000000000001 l-0.86441 0 c-0.15254 0 -0.22034 0.067797 -0.22034 0.22034 l0 13.119 c0 0.13559 0.067797 0.22017 0.22034 0.22017 l0.88136 0 c0.11864 0 0.20339 -0.08458 0.20339 -0.22017 l0 -13.119 c0 -0.15254 -0.084746 -0.22034 -0.22034 -0.22034 z M184.41020338983049 6.441000000000001 c0.11864 0 0.20356 0.067631 0.20356 0.18627 l0 13.186 c0 0.11881 -0.084746 0.18644 -0.20339 0.18644 l-0.35593 0 c-0.25441 0 -0.49169 -0.16933 -0.81373 -0.52525 l-8.9153 -10.525 l0 10.831 c0 0.13559 -0.084746 0.22017 -0.22034 0.22017 l-0.88136 0 c-0.15254 0 -0.22034 -0.08458 -0.22034 -0.22017 l0 -13.136 c0 -0.11864 0.067797 -0.20339 0.20339 -0.20339 l0.55932 0 c0.11864 0 0.20339 0.050847 0.32203 0.18644 l9.2034 10.932 l0 -10.932 c0 -0.11864 0.067797 -0.18644 0.18644 -0.18644 l0.9322 0 z M206.87483050847456 6.441000000000001 c0.15254 0 0.22051 0.067797 0.22051 0.22034 l0 0.84746 c0 0.13559 -0.067797 0.22034 -0.22034 0.22034 l-4.3729 0 l0 12.034 c0 0.15254 -0.067797 0.23712 -0.20339 0.23712 l-0.67797 0 c-0.30508 0 -0.45763 -0.18644 -0.45763 -0.47441 l0 -11.797 l-4.3729 0 c-0.15254 0 -0.23729 -0.084746 -0.23729 -0.22034 l0 -0.83051 c0 -0.16949 0.084746 -0.23729 0.23729 -0.23729 l10.085 0 z M227.72861186440676 7.728999999999999 l-7.3556 0.00049656 l0 4.9659 l4.5424 0 c0.15254 0 0.23729 0.067797 0.23729 0.23729 l0 0.81339 c0 0.15254 -0.084746 0.22034 -0.23729 0.22034 l-4.5424 0 l0 4.7458 l7.3559 0 c0.15254 0 0.23712 0.084746 0.23712 0.23712 l0 0.81356 c0 0.16949 -0.067797 0.23712 -0.23729 0.23712 l-8.4746 0 c-0.15254 0 -0.22034 -0.08458 -0.22034 -0.22017 l0 -13.119 c0 -0.15254 0.084746 -0.22034 0.22034 -0.22034 l8.4746 0 c0.15254 0 0.23712 0.084746 0.23712 0.22034 l0 0.84746 c0 0.13559 -0.067797 0.22034 -0.23729 0.22034 z M249.81988135593218 19.76288 c0.084746 0.13559 0.033732 0.23712 -0.11881 0.23712 l-0.88136 0 c-0.27119 0 -0.45763 -0.22017 -0.55932 -0.37271 l-3 -4.2542 l-0.050847 0 l-3.8814 0 l0 4.3898 c0 0.15254 -0.067797 0.23712 -0.23729 0.23712 l-0.88136 0 c-0.15254 0 -0.22034 -0.08458 -0.22034 -0.23712 l0 -13.102 c0 -0.15254 0.067797 -0.22034 0.22034 -0.22034 l5 0 c3.1695 0 4.6273 2.4576 4.6273 4.4746 c0 1.7288 -1.0508 3.7288 -3.2712 4.3051 z M241.32868135593216 7.728999999999999 l0.00016552 6.3727 l3.7797 0 c2.3051 0 3.4066 -1.6102 3.4066 -3.2203 c0 -1.5932 -1.1186 -3.1524 -3.4068 -3.1524 l-3.7797 0 z M274.64088135593215 19.77983 c0.067797 0.13559 0.034229 0.22017 -0.11831 0.22017 l-1.0339 0 c-0.11864 0 -0.18644 -0.050847 -0.23729 -0.15254 l-1.1864 -2.5254 l-8.1864 0 l-1.1864 2.5254 c-0.050847 0.10169 -0.11848 0.15254 -0.22034 0.15254 l-1.0678 0 c-0.11864 0 -0.18644 -0.08458 -0.11864 -0.22017 l6.3558 -13.271 c0.067797 -0.11864 0.11864 -0.15254 0.20322 -0.15254 l0.23745 0 c0.084746 0 0.15254 0.033898 0.20339 0.15254 z M264.4543813559322 16.1019 l7.0339 0 l-3.5254 -7.4576 z M297.0711694915254 17.729 c0.11864 0.08458 0.084746 0.22017 -0.067797 0.37271 c-1.2544 1.2542 -2.8814 2.0168 -4.8983 2.0168 c-3.8136 0 -6.9322 -3.0168 -6.9322 -6.8812 c0 -3.8475 3.1186 -6.9153 6.9322 -6.9153 c1.9322 0 3.661 0.74576 4.9322 2.0169 c0.15254 0.15254 0.16949 0.27119 0.067797 0.35593 l-0.71186 0.59322 c-0.11864 0.10169 -0.22034 0.10169 -0.33898 -0.016949 c-0.71186 -0.74559 -2.1186 -1.6608 -3.8475 -1.6608 c-3.678 0 -5.7119 2.9831 -5.7119 5.6271 c0 2.678 2.0339 5.5932 5.7119 5.5932 c1.7288 0 3.0508 -0.88136 3.7966 -1.6271 c0.13559 -0.13559 0.23729 -0.16949 0.35593 -0.067797 z M319.01042372881346 6.441000000000001 c0.15254 0 0.22051 0.067797 0.22051 0.22034 l0 0.84746 c0 0.13559 -0.067797 0.22034 -0.22034 0.22034 l-4.3729 0 l0 12.034 c0 0.15254 -0.067797 0.23712 -0.20339 0.23712 l-0.67797 0 c-0.30508 0 -0.45763 -0.18644 -0.45763 -0.47441 l0 -11.797 l-4.3729 0 c-0.15254 0 -0.23729 -0.084746 -0.23729 -0.22034 l0 -0.83051 c0 -0.16949 0.084746 -0.23729 0.23729 -0.23729 l10.085 0 z M336.3559050847457 16.1019 c0 0.15254 -0.067797 0.22034 -0.20339 0.22034 l-5.339 0 c-0.15254 0 -0.23729 -0.067797 -0.23729 -0.20339 l0 -0.74576 c0 -0.15254 0.084746 -0.22034 0.23729 -0.22034 l5.339 0 c0.13559 0 0.20339 0.067797 0.20339 0.22034 l0 0.72881 z M358.02398305084733 6.441000000000001 c0.15254 0 0.22051 0.067797 0.22051 0.22034 l0 0.84746 c0 0.13559 -0.067797 0.22034 -0.22034 0.22034 l-4.3729 0 l0 12.034 c0 0.15254 -0.067797 0.23712 -0.20339 0.23712 l-0.67797 0 c-0.30508 0 -0.45763 -0.18644 -0.45763 -0.47441 l0 -11.797 l-4.3729 0 c-0.15254 0 -0.23729 -0.084746 -0.23729 -0.22034 l0 -0.83051 c0 -0.16949 0.084746 -0.23729 0.23729 -0.23729 l10.085 0 z M379.75886440677954 19.76288 c0.084746 0.13559 0.033732 0.23712 -0.11881 0.23712 l-0.88136 0 c-0.27119 0 -0.45763 -0.22017 -0.55932 -0.37271 l-3 -4.2542 l-0.050847 0 l-3.8814 0 l0 4.3898 c0 0.15254 -0.067797 0.23712 -0.23729 0.23712 l-0.88136 0 c-0.15254 0 -0.22034 -0.08458 -0.22034 -0.23712 l0 -13.102 c0 -0.15254 0.067797 -0.22034 0.22034 -0.22034 l5 0 c3.1695 0 4.6273 2.4576 4.6273 4.4746 c0 1.7288 -1.0508 3.7288 -3.2712 4.3051 z M371.26766440677955 7.728999999999999 l0.00016552 6.3727 l3.7797 0 c2.3051 0 3.4066 -1.6102 3.4066 -3.2203 c0 -1.5932 -1.1186 -3.1524 -3.4068 -3.1524 l-3.7797 0 z M404.57986440677956 19.77983 c0.067797 0.13559 0.034229 0.22017 -0.11831 0.22017 l-1.0339 0 c-0.11864 0 -0.18644 -0.050847 -0.23729 -0.15254 l-1.1864 -2.5254 l-8.1864 0 l-1.1864 2.5254 c-0.050847 0.10169 -0.11848 0.15254 -0.22034 0.15254 l-1.0678 0 c-0.11864 0 -0.18644 -0.08458 -0.11864 -0.22017 l6.3558 -13.271 c0.067797 -0.11864 0.11864 -0.15254 0.20322 -0.15254 l0.23745 0 c0.084746 0 0.15254 0.033898 0.20339 0.15254 z M394.3933644067796 16.1019 l7.0339 0 l-3.5254 -7.4576 z M427.9763050847457 6.441000000000001 c0.11864 0 0.20356 0.067631 0.20356 0.18627 l0 13.186 c0 0.11881 -0.084746 0.18644 -0.20339 0.18644 l-0.35593 0 c-0.25441 0 -0.49169 -0.16933 -0.81373 -0.52525 l-8.9153 -10.525 l0 10.831 c0 0.13559 -0.084746 0.22017 -0.22034 0.22017 l-0.88136 0 c-0.15254 0 -0.22034 -0.08458 -0.22034 -0.22017 l0 -13.136 c0 -0.11864 0.067797 -0.20339 0.20339 -0.20339 l0.55932 0 c0.11864 0 0.20339 0.050847 0.32203 0.18644 l9.2034 10.932 l0 -10.932 c0 -0.11864 0.067797 -0.18644 0.18644 -0.18644 l0.9322 0 z M440.2033922033898 17.729 l0.47441 -0.55932 c0.15238 -0.15254 0.30492 -0.13559 0.44051 -0.033898 c0.32203 0.27119 1.6441 1.7119 3.5254 1.7119 c2.2373 0 3.2203 -1.2203 3.2203 -2.4237 c0 -1.7288 -1.9663 -2.1864 -3.7459 -2.8305 c-2.0169 -0.76271 -3.7458 -1.678 -3.7458 -3.7119 c0 -1.6949 1.2373 -3.5593 4.2712 -3.5593 c2.0847 0 3.5932 1.2542 4 1.6102 c0.13559 0.11864 0.18644 0.27119 0.084912 0.40678 l-0.44068 0.57627 c-0.10169 0.13559 -0.23729 0.16949 -0.38983 0.067797 c-0.33898 -0.25424 -1.5592 -1.3898 -3.2371 -1.3898 c-1.8985 0 -2.9663 1 -2.9663 2.288 c0 1.4915 1.5086 2.0169 3.4917 2.7288 c1.8136 0.67797 4 1.5932 4 3.8305 c0 1.9661 -1.8303 3.6608 -4.5253 3.6608 c-2.4746 0 -4 -1.61 -4.3898 -1.9998 c-0.11864 -0.11864 -0.22034 -0.22034 -0.067797 -0.37271 z M473.6849491525423 19.77983 c0.067797 0.13559 0.034229 0.22017 -0.11831 0.22017 l-1.0339 0 c-0.11864 0 -0.18644 -0.050847 -0.23729 -0.15254 l-1.1864 -2.5254 l-8.1864 0 l-1.1864 2.5254 c-0.050847 0.10169 -0.11848 0.15254 -0.22034 0.15254 l-1.0678 0 c-0.11864 0 -0.18644 -0.08458 -0.11864 -0.22017 l6.3558 -13.271 c0.067797 -0.11864 0.11864 -0.15254 0.20322 -0.15254 l0.23745 0 c0.084746 0 0.15254 0.033898 0.20339 0.15254 z M463.4984491525423 16.1019 l7.0339 0 l-3.5254 -7.4576 z M496.1152372881355 17.729 c0.11864 0.08458 0.084746 0.22017 -0.067797 0.37271 c-1.2544 1.2542 -2.8814 2.0168 -4.8983 2.0168 c-3.8136 0 -6.9322 -3.0168 -6.9322 -6.8812 c0 -3.8475 3.1186 -6.9153 6.9322 -6.9153 c1.9322 0 3.661 0.74576 4.9322 2.0169 c0.15254 0.15254 0.16949 0.27119 0.067797 0.35593 l-0.71186 0.59322 c-0.11864 0.10169 -0.22034 0.10169 -0.33898 -0.016949 c-0.71186 -0.74559 -2.1186 -1.6608 -3.8475 -1.6608 c-3.678 0 -5.7119 2.9831 -5.7119 5.6271 c0 2.678 2.0339 5.5932 5.7119 5.5932 c1.7288 0 3.0508 -0.88136 3.7966 -1.6271 c0.13559 -0.13559 0.23729 -0.16949 0.35593 -0.067797 z M518.0544915254236 6.441000000000001 c0.15254 0 0.22051 0.067797 0.22051 0.22034 l0 0.84746 c0 0.13559 -0.067797 0.22034 -0.22034 0.22034 l-4.3729 0 l0 12.034 c0 0.15254 -0.067797 0.23712 -0.20339 0.23712 l-0.67797 0 c-0.30508 0 -0.45763 -0.18644 -0.45763 -0.47441 l0 -11.797 l-4.3729 0 c-0.15254 0 -0.23729 -0.084746 -0.23729 -0.22034 l0 -0.83051 c0 -0.16949 0.084746 -0.23729 0.23729 -0.23729 l10.085 0 z"></path></g></svg>